<svg width="97" height="14" viewBox="0 0 97 14" fill="none" xmlns="http://www.w3.org/2000/svg">
<path fill-rule="evenodd" clip-rule="evenodd" d="M74.8741 0.0668945C75.4905 0.0668945 76.033 0.253331 76.4825 0.588366C76.8755 0.88137 77.198 1.29246 77.4307 1.73572C78.1972 3.19596 79.0731 4.86423 79.9259 6.48833L80.1943 6.99943C82.11 10.6476 83.8359 13.9336 83.8359 13.9336H80.3076L78.8092 11.0627H74.8822L73.4961 8.41602H77.4275L74.8741 3.52383L69.4405 13.9336H65.9122C65.9122 13.9336 67.6575 10.6476 69.5861 6.99943L69.8562 6.48833C70.0369 6.14641 70.2185 5.80254 70.3998 5.45906L70.6714 4.94444C71.2587 3.83133 71.8362 2.73483 72.3606 1.73572C72.5933 1.29246 72.9158 0.88137 73.3088 0.588366C73.7583 0.253331 74.2575 0.0668945 74.8741 0.0668945ZM40.1119 0.0668945C40.7284 0.0668945 41.2708 0.253331 41.7204 0.588366C42.1134 0.88137 42.4359 1.29246 42.6685 1.73572C43.193 2.73483 43.7687 3.83133 44.3531 4.94444L44.6233 5.45906C44.6684 5.54493 44.7136 5.63083 44.7586 5.71671L45.0289 6.23156C45.0739 6.31725 45.1189 6.40285 45.1638 6.48833L45.4322 6.99943C47.3479 10.6476 49.0738 13.9336 49.0738 13.9336H45.5454L44.0469 11.0627H40.1199L38.7339 8.41602H42.6655L40.1119 3.52383L34.6784 13.9336H31.15C31.15 13.9336 32.8953 10.6476 34.8238 6.99943L35.094 6.48833C35.1391 6.40285 35.1844 6.31725 35.2296 6.23156L35.5015 5.71671C36.2271 4.3426 36.9529 2.9654 37.5984 1.73572C37.8312 1.29246 38.1536 0.88137 38.5467 0.588366C38.9962 0.253331 39.4954 0.0668945 40.1119 0.0668945ZM28.367 0.145912C30.6782 0.145912 32.5522 2.01954 32.5522 4.33105C32.5522 6.64244 30.6782 8.51607 28.367 8.51607L22.1504 8.51665C21.4445 8.51665 20.8723 9.08896 20.8723 9.79483V10.9793H30.3979L28.8301 13.9334H17.7811V9.50216C17.7811 7.32679 19.5446 5.56329 21.7198 5.56329L28.1816 5.56307C28.871 5.56307 29.4276 4.9943 29.4097 4.29957C29.3925 3.62796 28.8234 3.10113 28.1515 3.10113L18.0148 3.10135C18.0148 1.46991 19.3375 0.147257 20.969 0.147257L28.367 0.145912ZM15.4626 0.147347V3.10144L7.48071 3.10767C5.30908 3.10767 3.54855 4.86803 3.54855 7.0397C3.54855 9.21147 5.30908 10.9719 7.48071 10.9719L12.3714 10.9793V8.5175L6.59987 8.51764V5.56323L15.4626 5.56309V13.9334L7.29282 13.9264C3.48942 13.9264 0.40625 10.8432 0.40625 7.0397C0.40625 3.23646 3.48942 0.15313 7.29282 0.15313L15.4626 0.147347ZM83.9503 0.156246L88.1941 6.13881L92.438 0.156246H96.2059L89.7798 9.0129V13.9312H86.6085V9.0129L80.1823 0.156246H83.9503ZM63.5456 0.147661C65.8562 0.147661 67.7295 2.02084 67.7295 4.33147C67.7295 6.64211 65.8562 8.51526 63.5456 8.51526L58.4159 8.51593C57.7102 8.51593 57.138 9.08795 57.138 9.7938V13.9311H54.0478V9.50097C54.0478 7.32639 55.8106 5.56345 57.9852 5.56345L63.4393 5.56323C64.1284 5.56323 64.6851 4.99461 64.6671 4.30018C64.6499 3.62872 64.081 3.10202 63.4094 3.10216H54.1366V0.148692L63.5456 0.147661Z" fill="#767B9F"/>
</svg>
