<?xml version="1.0" encoding="UTF-8"?>
<svg width="16px" height="10px" viewBox="0 0 16 10" version="1.1" xmlns="http://www.w3.org/2000/svg" xmlns:xlink="http://www.w3.org/1999/xlink">
    <!-- Generator: Sketch 54.1 (76490) - https://sketchapp.com -->
    <title>Artboard</title>
    <desc>Created with Sketch.</desc>
    <g id="Artboard" stroke="none" stroke-width="1" fill="none" fill-rule="evenodd">
        <rect fill="#FFFFFF" x="0" y="0" width="16" height="10"></rect>
        <g id="Flag_of_South_Korea" transform="translate(0.500000, 0.000000)" fill-rule="nonzero">
            <rect id="Rectangle" fill="#FFFFFF" x="0" y="0.00833333333" width="15" height="10"></rect>
            <path d="M2.64637328,3.27489522 L2.29968566,3.04377014 L3.68643615,0.963644404 L4.03312377,1.19476949 L2.64637328,3.27489522 Z M3.16640472,3.62158284 L2.81971709,3.39045776 L4.20646758,1.31033203 L4.55315521,1.54145711 L3.16640472,3.62158284 Z M3.68643615,3.96827047 L3.33974853,3.73714539 L4.72649902,1.65701965 L5.07318664,1.88814473 L3.68643615,3.96827047 Z" id="Shape" fill="#000000"></path>
            <path d="M10.273501,8.35964702 L9.92681336,8.12852194 L11.3135638,6.0483962 L11.6602515,6.27952128 L10.273501,8.35964702 Z M10.7935324,8.70633464 L10.4468448,8.47520956 L11.8335953,6.39508382 L12.1802829,6.6262089 L10.7935324,8.70633464 Z M11.3135639,9.05302226 L10.9668762,8.82189718 L12.3536267,6.74177144 L12.7003143,6.97289653 L11.3135639,9.05302226 Z" id="Shape" fill="#000000"></path>
            <polygon id="Path" fill="#FFFFFF" points="10.3890635 7.05956843 10.5046261 6.88622462 12.2380642 8.04185003 12.1225016 8.21519384"></polygon>
            <circle id="Oval" fill="#CD2E3A" transform="translate(7.500000, 5.008333) rotate(-56.309932) translate(-7.500000, -5.008333) " cx="7.5" cy="5.00833333" r="2.5"></circle>
            <path d="M7.77831238,3.02836477 C7.08795644,3.02836477 6.52831238,3.58800883 6.52831238,4.27836477 C6.52831238,4.9687207 7.08795644,5.52836477 7.77831238,5.52836477 C8.46866831,5.52836477 9.02831238,6.08800883 9.02831238,6.77836477 C9.02831238,7.4687207 8.46866831,8.02836477 7.77831238,8.02836477 C6.3976005,8.02836477 5.27831238,6.90907664 5.27831238,5.52836477 C5.27831238,4.14765289 6.3976005,3.02836477 7.77831238,3.02836477 Z" id="Path" fill="#0047A0" transform="translate(7.153312, 5.528365) rotate(-56.309932) translate(-7.153312, -5.528365) "></path>
            <polygon id="Path" fill="#000000" points="4.03312377 8.82189718 3.68643615 9.05302226 2.29968566 6.97289653 2.64637328 6.74177144"></polygon>
            <polygon id="Path" fill="#000000" points="4.55315521 8.47520956 4.20646758 8.70633464 2.81971709 6.6262089 3.16640472 6.39508382"></polygon>
            <polygon id="Path" fill="#000000" points="5.07318664 8.12852194 4.72649902 8.35964702 3.33974853 6.27952128 3.68643615 6.0483962"></polygon>
            <path d="M11.6602515,3.73714539 L11.3135638,3.96827047 L9.92681336,1.88814473 L10.273501,1.65701965 L11.6602515,3.73714539 Z M12.1802829,3.39045776 L11.8335953,3.62158284 L10.4468448,1.54145711 L10.7935324,1.31033203 L12.1802829,3.39045776 Z M12.7003143,3.04377014 L12.3536267,3.27489522 L10.9668762,1.19476949 L11.3135639,0.963644404 L12.7003143,3.04377014 Z" id="Shape" fill="#000000"></path>
            <polygon id="Path" fill="#FFFFFF" points="3.4842017 7.81072495 3.36863916 7.63738114 3.8886706 7.29069351 4.00423314 7.46403733"></polygon>
            <polygon id="Path" fill="#FFFFFF" points="10.5046261 3.13044205 10.3890635 2.95709823 10.9957669 2.55262934 11.1113294 2.72597315"></polygon>
            <polygon id="Path" fill="#FFFFFF" points="11.6313608 2.37928553 11.5157983 2.20594172 12.0358297 1.8592541 12.1513923 2.03259791"></polygon>
        </g>
    </g>
</svg>