<svg width="119" height="21" viewBox="0 0 119 21" fill="none" xmlns="http://www.w3.org/2000/svg">
<path fill-rule="evenodd" clip-rule="evenodd" d="M16.8275 2.22733C16.6934 2.33278 16.5623 2.4414 16.434 2.55291C14.2425 4.45987 12.8553 7.267 12.8553 10.4C12.8553 13.5327 14.2425 16.3398 16.434 18.2468C16.5623 18.3583 16.6934 18.4666 16.8275 18.5724C16.9615 18.4666 17.0927 18.3583 17.221 18.2468C19.4125 16.3398 20.7997 13.5327 20.7997 10.4C20.7997 7.267 19.4125 4.45987 17.221 2.55291C17.0927 2.4414 16.9615 2.33278 16.8275 2.22733ZM23.255 0C21.1256 0 19.1461 0.640178 17.4977 1.73796C17.5821 1.807 17.6673 1.87518 17.749 1.94624C20.1991 4.07767 21.6043 7.15896 21.6043 10.4C21.6043 13.6405 20.1991 16.7218 17.7493 18.8535C17.6679 18.924 17.5821 18.9924 17.4977 19.0618C19.1461 20.1595 21.1256 20.7997 23.255 20.7997C28.9987 20.7997 33.655 16.1434 33.655 10.4C33.655 4.65602 28.9987 0 23.255 0ZM15.9059 18.8535C15.9871 18.924 16.0729 18.9924 16.1573 19.0618C14.5089 20.1598 12.5294 20.8 10.4 20.8C4.65602 20.8 0 16.1434 0 10.4C0 4.65631 4.65602 0 10.4 0C12.5291 0 14.5086 0.640178 16.1573 1.73796C16.0729 1.807 15.9877 1.87518 15.9059 1.94596C13.4559 4.07767 12.0507 7.15896 12.0507 10.4C12.0507 13.6408 13.4559 16.722 15.9059 18.8535ZM54.4258 10.4448C54.4258 9.22942 55.2214 8.23102 56.5237 8.23102C57.7682 8.23102 58.6075 9.18609 58.6075 10.4448C58.6075 11.7035 57.7682 12.6585 56.5237 12.6585C55.2214 12.6585 54.4258 11.6604 54.4258 10.4448ZM60.0253 10.4448V6.98678H58.5205V7.82571C58.043 7.20373 57.3196 6.81315 56.3356 6.81315C54.3966 6.81315 52.8776 8.33242 52.8776 10.4448C52.8776 12.5574 54.3966 14.0767 56.3356 14.0767C57.3196 14.0767 58.043 13.6861 58.5205 13.0638V13.9034H60.0253V10.4448ZM110.842 10.4448C110.842 9.22942 111.638 8.23102 112.941 8.23102C114.185 8.23102 115.024 9.18609 115.024 10.4448C115.024 11.7035 114.185 12.6585 112.941 12.6585C111.638 12.6585 110.842 11.6604 110.842 10.4448ZM118.126 13.5749V13.6835H118.226C118.249 13.6835 118.267 13.6789 118.28 13.6699C118.294 13.661 118.301 13.6471 118.301 13.6283C118.301 13.6107 118.294 13.5971 118.28 13.5882C118.267 13.5789 118.249 13.5749 118.226 13.5749H118.126ZM118.227 13.4983C118.279 13.4983 118.319 13.5099 118.348 13.5333C118.376 13.5564 118.39 13.5885 118.39 13.6283C118.39 13.6624 118.379 13.6899 118.356 13.7118C118.334 13.7338 118.301 13.7471 118.26 13.7523L118.394 13.906H118.289L118.165 13.7531H118.126V13.906H118.038V13.4983H118.227ZM118.201 14.0461C118.248 14.0461 118.292 14.0368 118.333 14.0192C118.374 14.001 118.41 13.9764 118.441 13.9458C118.472 13.9152 118.496 13.8788 118.513 13.8372C118.531 13.7956 118.54 13.7511 118.54 13.7037C118.54 13.6564 118.531 13.6122 118.513 13.5703C118.496 13.529 118.472 13.4928 118.441 13.4616C118.41 13.431 118.374 13.4068 118.333 13.3891C118.292 13.3715 118.248 13.3626 118.201 13.3626C118.153 13.3626 118.108 13.3715 118.066 13.3891C118.024 13.4068 117.987 13.431 117.957 13.4616C117.926 13.4928 117.902 13.529 117.884 13.5703C117.866 13.6122 117.857 13.6564 117.857 13.7037C117.857 13.7511 117.866 13.7956 117.884 13.8372C117.902 13.8788 117.926 13.9152 117.957 13.9458C117.987 13.9764 118.024 14.001 118.066 14.0192C118.108 14.0368 118.153 14.0461 118.201 14.0461ZM118.201 13.2649C118.263 13.2649 118.321 13.2765 118.375 13.2993C118.429 13.3224 118.476 13.3536 118.516 13.3935C118.557 13.4333 118.589 13.4798 118.612 13.5333C118.636 13.5867 118.648 13.6434 118.648 13.7037C118.648 13.7641 118.636 13.8207 118.612 13.8739C118.589 13.927 118.557 13.9733 118.516 14.0128C118.476 14.053 118.429 14.0842 118.375 14.1079C118.321 14.1313 118.263 14.1428 118.201 14.1428C118.138 14.1428 118.079 14.1313 118.024 14.1079C117.969 14.0842 117.922 14.053 117.881 14.0128C117.841 13.9733 117.809 13.927 117.786 13.8739C117.763 13.8207 117.751 13.7641 117.751 13.7037C117.751 13.6434 117.763 13.5867 117.786 13.5333C117.809 13.4798 117.841 13.4333 117.881 13.3935C117.922 13.3536 117.969 13.3224 118.024 13.2993C118.079 13.2765 118.138 13.2649 118.201 13.2649ZM116.442 10.4448V4.20853H114.937V7.82571C114.46 7.20373 113.736 6.81315 112.752 6.81315C110.813 6.81315 109.294 8.33242 109.294 10.4448C109.294 12.5574 110.813 14.0767 112.752 14.0767C113.736 14.0767 114.46 13.6861 114.937 13.0638V13.9034H116.442V10.4448ZM78.691 8.1588C79.6605 8.1588 80.2828 8.76633 80.442 9.83724H76.8534C77.0126 8.83884 77.6204 8.1588 78.691 8.1588ZM78.7202 6.81315C76.6942 6.81315 75.2764 8.2888 75.2764 10.4448C75.2764 12.6444 76.752 14.0767 78.8213 14.0767C79.8633 14.0767 80.8181 13.8164 81.6576 13.1075L80.9195 11.9929C80.3406 12.4563 79.6028 12.7166 78.908 12.7166C77.9388 12.7166 77.0559 12.268 76.839 11.0237H81.9757C81.9901 10.8354 82.0046 10.6476 82.0046 10.4448C81.9901 8.2888 80.6592 6.81315 78.7202 6.81315ZM96.8792 10.4448C96.8792 9.22942 97.6751 8.23102 98.9774 8.23102C100.222 8.23102 101.061 9.18609 101.061 10.4448C101.061 11.7035 100.222 12.6585 98.9774 12.6585C97.6751 12.6585 96.8792 11.6604 96.8792 10.4448ZM102.479 10.4448V6.98678H100.974V7.82571C100.497 7.20373 99.7733 6.81315 98.789 6.81315C96.8503 6.81315 95.331 8.33242 95.331 10.4448C95.331 12.5574 96.8503 14.0767 98.789 14.0767C99.7733 14.0767 100.497 13.6861 100.974 13.0638V13.9034H102.479V10.4448ZM88.3856 10.4448C88.3856 12.543 89.847 14.0767 92.0755 14.0767C93.1173 14.0767 93.8118 13.845 94.564 13.2519L93.8406 12.0366C93.2762 12.4419 92.6831 12.6585 92.0319 12.6585C90.8313 12.6444 89.9484 11.776 89.9484 10.4448C89.9484 9.11358 90.8313 8.24547 92.0319 8.23102C92.6831 8.23102 93.2762 8.44798 93.8406 8.85329L94.564 7.63793C93.8118 7.04455 93.1173 6.81315 92.0755 6.81315C89.847 6.81315 88.3856 8.34687 88.3856 10.4448ZM107.775 6.81315C106.907 6.81315 106.342 7.21818 105.952 7.82571V6.98678H104.461V13.9034H105.966V10.0253C105.966 8.88218 106.458 8.24547 107.442 8.24547C107.746 8.24547 108.064 8.2888 108.382 8.41909L108.846 7.00122C108.513 6.87093 108.079 6.81315 107.775 6.81315ZM67.4628 7.53653C66.7391 7.059 65.7407 6.81315 64.6412 6.81315C62.8902 6.81315 61.7616 7.65209 61.7616 9.02691C61.7616 10.1556 62.6011 10.8501 64.1489 11.067L64.8582 11.1684C65.6829 11.284 66.0735 11.501 66.0735 11.8918C66.0735 12.4271 65.5238 12.731 64.4965 12.731C63.4547 12.731 62.7022 12.3982 62.1955 12.0077L61.4865 13.1797C62.3116 13.7872 63.3533 14.0767 64.482 14.0767C66.4788 14.0767 67.6361 13.1361 67.6361 11.8196C67.6361 10.604 66.7247 9.96724 65.2198 9.75029L64.5109 9.64889C63.8598 9.56222 63.3389 9.43193 63.3389 8.96913C63.3389 8.46242 63.8309 8.1588 64.6556 8.1588C65.5382 8.1588 66.3919 8.4916 66.8116 8.75189L67.4628 7.53653ZM86.8663 6.81315C85.9982 6.81315 85.434 7.21818 85.0431 7.82571V6.98678H83.5527V13.9034H85.0575V10.0253C85.0575 8.88218 85.5495 8.24547 86.5338 8.24547C86.8374 8.24547 87.1558 8.2888 87.4741 8.41909L87.9372 7.00122C87.6044 6.87093 87.1702 6.81315 86.8663 6.81315ZM74.0318 6.98678H71.5719V4.88858H70.053V6.98678H68.6492V8.36131H70.053V11.5157C70.053 13.1216 70.6749 14.0767 72.4545 14.0767C73.1059 14.0767 73.8582 13.8742 74.3357 13.5414L73.9018 12.2538C73.4529 12.5141 72.9609 12.6444 72.5706 12.6444C71.8181 12.6444 71.5719 12.1813 71.5719 11.4865V8.36131H74.0318V6.98678ZM51.5462 13.9034V9.56222C51.5462 7.92711 50.5044 6.8276 48.826 6.81315C47.9434 6.79871 47.0317 7.07344 46.3953 8.04296C45.9177 7.27624 45.1652 6.81315 44.109 6.81315C43.3709 6.81315 42.6475 7.03011 42.0833 7.84044V6.98678H40.5782V13.9034H42.0977V10.0686C42.0977 8.86773 42.7634 8.23102 43.7906 8.23102C44.789 8.23102 45.2955 8.88218 45.2955 10.0542V13.9034H46.8147V10.0686C46.8147 8.86773 47.5092 8.23102 48.5076 8.23102C49.5349 8.23102 50.0269 8.88218 50.0269 10.0542V13.9034H51.5462ZM33.33 16.8442V16.4407H33.2248L33.1035 16.7183L32.9822 16.4407H32.877V16.8442H32.9512V16.5398L33.0651 16.8024H33.1422L33.2557 16.5392V16.8442H33.33ZM32.6626 16.8442V16.5094H32.7976V16.4415H32.4538V16.5094H32.589V16.8442H32.6626Z" fill="#767B9F"/>
</svg>
