<svg width="16" height="12" viewBox="0 0 16 12" fill="none" xmlns="http://www.w3.org/2000/svg">
<path fill-rule="evenodd" clip-rule="evenodd" d="M4 0H16V12H4V0Z" fill="#EF0000"/>
<path fill-rule="evenodd" clip-rule="evenodd" d="M0 0H6V12H0V0Z" fill="#2F8D00"/>
<mask id="mask0_744_104062" style="mask-type:alpha" maskUnits="userSpaceOnUse" x="2" y="2" width="8" height="8">
<path fill-rule="evenodd" clip-rule="evenodd" d="M5.95239 9.90366C3.82215 9.90366 2.09525 8.15596 2.09525 6.00005C2.09525 3.84414 3.82215 2.09644 5.95239 2.09644C8.08263 2.09644 9.80953 3.84414 9.80953 6.00005C9.80953 8.15596 8.08263 9.90366 5.95239 9.90366Z" fill="white"/>
</mask>
<g mask="url(#mask0_744_104062)">
<path fill-rule="evenodd" clip-rule="evenodd" d="M5.71429 2H6.21429V3.3494H5.71429V2Z" fill="#FFE017"/>
<path fill-rule="evenodd" clip-rule="evenodd" d="M5.71429 8.74707H6.21429V10.0001H5.71429V8.74707Z" fill="#FFE017"/>
<path d="M2.15723 6.20201L2.01744 5.84337C3.56003 5.22753 4.72431 4.83037 5.51431 4.65138C6.67337 4.38878 7.94691 4.19449 9.335 4.06836L9.36907 4.45236C7.9969 4.57704 6.73969 4.76884 5.59753 5.02761C4.83106 5.20127 3.68295 5.59291 2.15723 6.20201Z" fill="#FFE017"/>
<path d="M9.57043 3.83204L9.45699 4.20009C8.29114 3.83204 7.34142 3.67383 6.61141 3.72283L6.5862 3.33814C7.36999 3.28552 8.36355 3.45104 9.57043 3.83204Z" fill="#FFE017"/>
<path d="M9.97383 5.88991L9.75833 6.20784C9.16399 5.7952 8.43177 5.58793 7.55667 5.58793V5.20239C8.50536 5.20239 9.31275 5.43093 9.97383 5.88991Z" fill="#FFE017"/>
<path d="M9.65101 6.00537L9.7495 6.3778C8.46818 6.72487 7.26521 6.92178 6.14049 6.96815C5.00801 7.01484 3.68808 6.81723 2.17957 6.37681L2.28516 6.00637C3.75701 6.43609 5.03733 6.62777 6.12498 6.58293C7.22039 6.53777 8.39577 6.34538 9.65101 6.00537Z" fill="#FFE017"/>
<path d="M9.50587 7.81811L8.9037 8.43545C7.75935 7.29217 6.75189 6.47468 5.88751 5.9835C5.00835 5.48392 3.86186 4.97663 2.4498 4.46368L2.73937 3.64722C4.19307 4.17529 5.38174 4.70124 6.30715 5.22711C7.24734 5.76136 8.31151 6.62486 9.50587 7.81811Z" fill="#FFE017"/>
<path d="M2.72917 8.1676L2.50124 7.85868C2.53307 7.83463 2.58986 7.79451 2.66811 7.74368C2.79731 7.65974 2.94078 7.57594 3.09514 7.49764C3.52029 7.28197 3.94676 7.14731 4.35352 7.13494C4.37341 7.13434 4.39322 7.13403 4.41295 7.13403V7.51958C4.39706 7.51958 4.38106 7.51982 4.36496 7.52031C4.02218 7.53073 3.64574 7.64959 3.26585 7.84231C3.12424 7.91414 2.99231 7.9912 2.8739 8.06812C2.83269 8.0949 2.79622 8.11966 2.76497 8.14173C2.74675 8.1546 2.73466 8.16345 2.72917 8.1676Z" fill="#FFE017"/>
<path d="M2.90608 8.30127L3.00202 7.92816C4.27208 8.26263 5.25122 8.4293 5.93456 8.4293C6.61535 8.4293 7.62865 8.2327 8.96787 7.83813L9.07435 8.20831C7.70346 8.61221 6.65906 8.81485 5.93456 8.81485C5.21262 8.81485 4.20476 8.64328 2.90608 8.30127Z" fill="#FFE017"/>
<path d="M2.41122 4.84717L3.01476 4.2312L3.89842 5.11802L3.29488 5.73399L2.41122 4.84717Z" fill="#FFE017"/>
<path d="M7.41797 7.92404L7.86689 7.18506L9.2687 8.05728L8.81978 8.79626L7.41797 7.92404Z" fill="#FFE017"/>
</g>
<path fill-rule="evenodd" clip-rule="evenodd" d="M2.09525 6.00005C2.09525 8.15596 3.82215 9.90366 5.95239 9.90366C8.08263 9.90366 9.80953 8.15596 9.80953 6.00005C9.80953 3.84414 8.08263 2.09644 5.95239 2.09644C3.82215 2.09644 2.09525 3.84414 2.09525 6.00005ZM9.33334 6.04824C9.33334 7.91137 7.84096 9.42174 6.00001 9.42174C4.15906 9.42174 2.66667 7.91137 2.66667 6.04824C2.66667 4.18511 4.15906 2.67475 6.00001 2.67475C7.84096 2.67475 9.33334 4.18511 9.33334 6.04824Z" fill="#F9E813"/>
<path d="M3.82835 3.59253V6.72288C4.03442 7.96192 4.72865 8.58144 5.91105 8.58144C7.09344 8.58144 7.78767 7.96192 7.99374 6.72288V3.59253H3.82835Z" fill="white"/>
<path d="M3.04263 3H8.57945V6.71137L8.57482 6.73706C8.30735 8.21984 7.35917 9 5.81104 9C4.26291 9 3.31473 8.21984 3.04727 6.73706L3.04263 6.71137V3Z" fill="#C51918"/>
<path fill-rule="evenodd" clip-rule="evenodd" d="M4.52381 3.95312H3.62381V4.85312H4.52381V3.95312ZM8.02381 3.95312H7.12381V4.85312H8.02381V3.95312Z" fill="#F9E813"/>
<path fill-rule="evenodd" clip-rule="evenodd" d="M3.62381 5.95312H4.52381V6.85312H3.62381V5.95312ZM7.1736 5.96729H8.0736V6.86729H7.1736V5.96729ZM7.18722 7.42475H6.28722V8.32475H7.18722V7.42475Z" fill="#F9E813"/>
<path fill-rule="evenodd" clip-rule="evenodd" d="M4.32426 7.42065H5.22426V8.32065H4.32426V7.42065Z" fill="#F9E813"/>
<path d="M4.4261 4.35522H7.39596V6.57567C7.39596 6.57567 7.17558 7.72232 5.91103 7.72232C4.64649 7.72232 4.4261 6.57567 4.4261 6.57567V4.35522Z" fill="#F7FCFF"/>
<path d="M5.61905 4.60229H6.27922V5.08303C6.27922 5.08303 6.23023 5.33129 5.94913 5.33129C5.66804 5.33129 5.61905 5.08303 5.61905 5.08303V4.60229Z" fill="#013399"/>
<path d="M5.61905 5.6626H6.27922V6.14333C6.27922 6.14333 6.23023 6.39159 5.94913 6.39159C5.66804 6.39159 5.61905 6.14333 5.61905 6.14333V5.6626Z" fill="#013399"/>
<path d="M6.4762 5.6626H7.13636V6.14333C7.13636 6.14333 7.08737 6.39159 6.80628 6.39159C6.52519 6.39159 6.4762 6.14333 6.4762 6.14333V5.6626Z" fill="#013399"/>
<path d="M4.7619 5.6626H5.42207V6.14333C5.42207 6.14333 5.37308 6.39159 5.09198 6.39159C4.81089 6.39159 4.7619 6.14333 4.7619 6.14333V5.6626Z" fill="#013399"/>
<path d="M5.61905 6.7229H6.27922V7.20364C6.27922 7.20364 6.23023 7.45189 5.94913 7.45189C5.66804 7.45189 5.61905 7.20364 5.61905 7.20364V6.7229Z" fill="#013399"/>
</svg>
